{
  "accessors": [
    {
      "bufferView": 2,
      "componentType": 5126,
      "count": 1182,
      "max": [
        1805.16796875,
        10001.8896484375,
        3267.96826171875
      ],
      "min": [
        -1784.9383544921875,
        -10323.9912109375,
        123.23011016845703
      ],
      "type": "VEC3"
    },
    {
      "bufferView": 2,
      "byteOffset": 14184,
      "componentType": 5126,
      "count": 1182,
      "max": [
        1,
        1,
        1
      ],
      "min": [
        -1,
        -1,
        -1
      ],
      "type": "VEC3"
    },
    {
      "bufferView": 3,
      "componentType": 5126,
      "count": 1182,
      "max": [
        1,
        0.99229395389556885,
        1,
        1
      ],
      "min": [
        -0.12390834838151932,
        -0.99229395389556885,
        -1,
        -1
      ],
      "type": "VEC4"
    },
    {
      "bufferView": 3,
      "byteOffset": 18912,
      "componentType": 5126,
      "count": 1182,
      "max": [
        1,
        1,
        1,
        1
      ],
      "min": [
        1,
        1,
        1,
        1
      ],
      "type": "VEC4"
    },
    {
      "bufferView": 1,
      "componentType": 5126,
      "count": 1182,
      "max": [
        1793.103515625,
        3595.146484375
      ],
      "min": [
        -1797.002685546875,
        -1457.3251953125
      ],
      "type": "VEC2"
    },
    {
      "bufferView": 0,
      "componentType": 5125,
      "count": 3201,
      "max": [
        1181
      ],
      "min": [
        0
      ],
      "type": "SCALAR"
    },
    {
      "bufferView": 2,
      "byteOffset": 28368,
      "componentType": 5126,
      "count": 914,
      "max": [
        860.93359375,
        6330.68994140625,
        3825.7568359375
      ],
      "min": [
        -853.679443359375,
        -10060.8701171875,
        1179.6534423828125
      ],
      "type": "VEC3"
    },
    {
      "bufferView": 2,
      "byteOffset": 39336,
      "componentType": 5126,
      "count": 914,
      "max": [
        1,
        1,
        1
      ],
      "min": [
        -1,
        -1,
        -1
      ],
      "type": "VEC3"
    },
    {
      "bufferView": 3,
      "byteOffset": 37824,
      "componentType": 5126,
      "count": 914,
      "max": [
        1,
        1,
        0.99997192621231079,
        1
      ],
      "min": [
        -0.97384119033813477,
        -1,
        -0.99992841482162476,
        -1
      ],
      "type": "VEC4"
    },
    {
      "bufferView": 3,
      "byteOffset": 52448,
      "componentType": 5126,
      "count": 914,
      "max": [
        1,
        1,
        1,
        1
      ],
      "min": [
        1,
        1,
        1,
        1
      ],
      "type": "VEC4"
    },
    {
      "bufferView": 1,
      "byteOffset": 9456,
      "componentType": 5126,
      "count": 914,
      "max": [
        1180.0302734375,
        2005.80126953125
      ],
      "min": [
        -485.48992919921875,
        -2005.8017578125
      ],
      "type": "VEC2"
    },
    {
      "bufferView": 0,
      "byteOffset": 12804,
      "componentType": 5125,
      "count": 2442,
      "max": [
        913
      ],
      "min": [
        0
      ],
      "type": "SCALAR"
    },
    {
      "bufferView": 2,
      "byteOffset": 50304,
      "componentType": 5126,
      "count": 951,
      "max": [
        2134.814208984375,
        11603.904296875,
        1088.3804931640625
      ],
      "min": [
        -1744.979736328125,
        -12982.1474609375,
        -2173.2138671875
      ],
      "type": "VEC3"
    },
    {
      "bufferView": 2,
      "byteOffset": 61716,
      "componentType": 5126,
      "count": 951,
      "max": [
        1,
        1,
        1
      ],
      "min": [
        -1,
        -1,
        -1
      ],
      "type": "VEC3"
    },
    {
      "bufferView": 3,
      "byteOffset": 67072,
      "componentType": 5126,
      "count": 951,
      "max": [
        1,
        1,
        1,
        1
      ],
      "min": [
        -1,
        -0.99866306781768799,
        -1,
        -1
      ],
      "type": "VEC4"
    },
    {
      "bufferView": 3,
      "byteOffset": 82288,
      "componentType": 5126,
      "count": 951,
      "max": [
        1,
        1,
        1,
        1
      ],
      "min": [
        1,
        1,
        1,
        1
      ],
      "type": "VEC4"
    },
    {
      "bufferView": 1,
      "byteOffset": 16768,
      "componentType": 5126,
      "count": 951,
      "max": [
        1,
        1.0000004768371582
      ],
      "min": [
        -5.9604644775390625e-08,
        -4.1723251342773438e-07
      ],
      "type": "VEC2"
    },
    {
      "bufferView": 0,
      "byteOffset": 22572,
      "componentType": 5125,
      "count": 2304,
      "max": [
        950
      ],
      "min": [
        0
      ],
      "type": "SCALAR"
    },
    {
      "bufferView": 2,
      "byteOffset": 73128,
      "componentType": 5126,
      "count": 4584,
      "max": [
        1805.16796875,
        10115.4462890625,
        4329.1982421875
      ],
      "min": [
        -1784.9383544921875,
        -10323.9912109375,
        119.10388946533203
      ],
      "type": "VEC3"
    },
    {
      "bufferView": 2,
      "byteOffset": 128136,
      "componentType": 5126,
      "count": 4584,
      "max": [
        1,
        1,
        1
      ],
      "min": [
        -1,
        -1,
        -1
      ],
      "type": "VEC3"
    },
    {
      "bufferView": 3,
      "byteOffset": 97504,
      "componentType": 5126,
      "count": 4584,
      "max": [
        1,
        1,
        1,
        1
      ],
      "min": [
        -0.69546574354171753,
        -1,
        -1,
        -1
      ],
      "type": "VEC4"
    },
    {
      "bufferView": 3,
      "byteOffset": 170848,
      "componentType": 5126,
      "count": 4584,
      "max": [
        1,
        1,
        1,
        1
      ],
      "min": [
        1,
        1,
        1,
        1
      ],
      "type": "VEC4"
    },
    {
      "bufferView": 1,
      "byteOffset": 24376,
      "componentType": 5126,
      "count": 4584,
      "max": [
        1793.103515625,
        3708.7021484375
      ],
      "min": [
        -1797.002685546875,
        -1457.3251953125
      ],
      "type": "VEC2"
    },
    {
      "bufferView": 0,
      "byteOffset": 31788,
      "componentType": 5125,
      "count": 10956,
      "max": [
        4583
      ],
      "min": [
        0
      ],
      "type": "SCALAR"
    },
    {
      "bufferView": 2,
      "byteOffset": 183144,
      "componentType": 5126,
      "count": 56,
      "max": [
        307.1876220703125,
        9058.8212890625,
        3556.6220703125
      ],
      "min": [
        -237.6046142578125,
        7796.5712890625,
        1784.971923828125
      ],
      "type": "VEC3"
    },
    {
      "bufferView": 2,
      "byteOffset": 183816,
      "componentType": 5126,
      "count": 56,
      "max": [
        0.99997031688690186,
        0.99237555265426636,
        1
      ],
      "min": [
        -0.99991875886917114,
        -0.98390710353851318,
        -1
      ],
      "type": "VEC3"
    },
    {
      "bufferView": 3,
      "byteOffset": 244192,
      "componentType": 5126,
      "count": 56,
      "max": [
        0.99998825788497925,
        1,
        0.003096793545410037,
        1
      ],
      "min": [
        -1,
        -0.9999997615814209,
        -0.02466944046318531,
        -1
      ],
      "type": "VEC4"
    },
    {
      "bufferView": 3,
      "byteOffset": 245088,
      "componentType": 5126,
      "count": 56,
      "max": [
        1,
        1,
        1,
        1
      ],
      "min": [
        1,
        1,
        1,
        1
      ],
      "type": "VEC4"
    },
    {
      "bufferView": 1,
      "byteOffset": 61048,
      "componentType": 5126,
      "count": 56,
      "max": [
        0.93514633178710938,
        1
      ],
      "min": [
        -0.13100230693817139,
        5.9604644775390625e-08
      ],
      "type": "VEC2"
    },
    {
      "bufferView": 0,
      "byteOffset": 75612,
      "componentType": 5125,
      "count": 96,
      "max": [
        55
      ],
      "min": [
        0
      ],
      "type": "SCALAR"
    },
    {
      "bufferView": 2,
      "byteOffset": 184488,
      "componentType": 5126,
      "count": 134,
      "max": [
        2077.99462890625,
        11555.65234375,
        2244.59228515625
      ],
      "min": [
        -1732.7857666015625,
        -12806.388671875,
        107.11251068115234
      ],
      "type": "VEC3"
    },
    {
      "bufferView": 2,
      "byteOffset": 186096,
      "componentType": 5126,
      "count": 134,
      "max": [
        0.10459009557962418,
        0.015567938797175884,
        0.0063062035478651524
      ],
      "min": [
        -0.1025247722864151,
        -0.99998015165328979,
        -1
      ],
      "type": "VEC3"
    },
    {
      "bufferView": 3,
      "byteOffset": 245984,
      "componentType": 5126,
      "count": 134,
      "max": [
        1,
        1.9116878320346586e-05,
        0.10459010303020477,
        1
      ],
      "min": [
        -1,
        -4.2973688323399983e-06,
        -0.1025247722864151,
        -1
      ],
      "type": "VEC4"
    },
    {
      "bufferView": 3,
      "byteOffset": 248128,
      "componentType": 5126,
      "count": 134,
      "max": [
        1,
        1,
        1,
        1
      ],
      "min": [
        1,
        1,
        1,
        1
      ],
      "type": "VEC4"
    },
    {
      "bufferView": 1,
      "byteOffset": 61496,
      "componentType": 5126,
      "count": 134,
      "max": [
        1741.063720703125,
        3708.703125
      ],
      "min": [
        -1744.85009765625,
        -538.4290771484375
      ],
      "type": "VEC2"
    },
    {
      "bufferView": 0,
      "byteOffset": 75996,
      "componentType": 5125,
      "count": 330,
      "max": [
        133
      ],
      "min": [
        0
      ],
      "type": "SCALAR"
    },
    {
      "bufferView": 2,
      "byteOffset": 187704,
      "componentType": 5126,
      "count": 8236,
      "max": [
        1538.21533203125,
        6330.68994140625,
        5255.22900390625
      ],
      "min": [
        -1507.12451171875,
        -10108.73828125,
        1006.5166015625
      ],
      "type": "VEC3"
    },
    {
      "bufferView": 2,
      "byteOffset": 286536,
      "componentType": 5126,
      "count": 8236,
      "max": [
        1,
        1,
        1
      ],
      "min": [
        -1,
        -1,
        -1
      ],
      "type": "VEC3"
    },
    {
      "bufferView": 3,
      "byteOffset": 250272,
      "componentType": 5126,
      "count": 8236,
      "max": [
        1,
        1,
        1,
        1
      ],
      "min": [
        -0.9462929368019104,
        -1,
        -1,
        -1
      ],
      "type": "VEC4"
    },
    {
      "bufferView": 3,
      "byteOffset": 382048,
      "componentType": 5126,
      "count": 8236,
      "max": [
        1,
        1,
        1,
        1
      ],
      "min": [
        1,
        1,
        1,
        1
      ],
      "type": "VEC4"
    },
    {
      "bufferView": 1,
      "byteOffset": 62568,
      "componentType": 5126,
      "count": 8236,
      "max": [
        1197.4197998046875,
        2005.80126953125
      ],
      "min": [
        -872.22222900390625,
        -2005.8017578125
      ],
      "type": "VEC2"
    },
    {
      "bufferView": 0,
      "byteOffset": 77316,
      "componentType": 5125,
      "count": 18180,
      "max": [
        8235
      ],
      "min": [
        0
      ],
      "type": "SCALAR"
    }
  ],
  "asset": {
    "extras": {
      "author": "nachoanzola (https://sketchfab.com/nachoanzola)",
      "license": "CC-BY-4.0 (http://creativecommons.org/licenses/by/4.0/)",
      "source": "https://sketchfab.com/models/5eed734fbd7f45f088688b7a50f8a70e",
      "title": "BAHRAIN"
    },
    "generator": "Sketchfab-3.36.2",
    "version": "2.0"
  },
  "bufferViews": [
    {
      "buffer": 0,
      "byteLength": 150036,
      "byteOffset": 0,
      "name": "floatBufferViews",
      "target": 34963
    },
    {
      "buffer": 0,
      "byteLength": 128456,
      "byteOffset": 150036,
      "byteStride": 8,
      "name": "floatBufferViews",
      "target": 34962
    },
    {
      "buffer": 0,
      "byteLength": 385368,
      "byteOffset": 278492,
      "byteStride": 12,
      "name": "floatBufferViews",
      "target": 34962
    },
    {
      "buffer": 0,
      "byteLength": 513824,
      "byteOffset": 663860,
      "byteStride": 16,
      "name": "floatBufferViews",
      "target": 34962
    }
  ],
  "buffers": [
    {
      "byteLength": 1177684,
      "uri": "scene.bin"
    }
  ],
  "images": [
    {
      "uri": "textures/BCasco_baseColor.jpeg"
    }
  ],
  "materials": [
    {
      "doubleSided": true,
      "emissiveFactor": [
        0,
        0,
        0
      ],
      "name": "BCasco",
      "pbrMetallicRoughness": {
        "baseColorFactor": [
          1,
          1,
          1,
          1
        ],
        "baseColorTexture": {
          "index": 0,
          "texCoord": 0
        },
        "metallicFactor": 0,
        "roughnessFactor": 0.59999999999999998
      }
    },
    {
      "doubleSided": true,
      "emissiveFactor": [
        0,
        0,
        0
      ],
      "name": "BBlanco",
      "pbrMetallicRoughness": {
        "baseColorFactor": [
          0.85097999999999996,
          0.90196100000000001,
          0.90588199999999997,
          1
        ],
        "metallicFactor": 0,
        "roughnessFactor": 0.59999999999999998
      }
    },
    {
      "doubleSided": true,
      "emissiveFactor": [
        0,
        0,
        0
      ],
      "name": "BChimene",
      "pbrMetallicRoughness": {
        "baseColorFactor": [
          0.18431400000000001,
          0.18431400000000001,
          0.18431400000000001,
          1
        ],
        "metallicFactor": 0,
        "roughnessFactor": 0.59999999999999998
      }
    },
    {
      "doubleSided": true,
      "emissiveFactor": [
        0,
        0,
        0
      ],
      "name": "BCubiert",
      "pbrMetallicRoughness": {
        "baseColorFactor": [
          0.67451000000000005,
          0.43529400000000001,
          0.29411799999999999,
          1
        ],
        "metallicFactor": 0,
        "roughnessFactor": 0.59999999999999998
      }
    },
    {
      "doubleSided": true,
      "emissiveFactor": [
        0,
        0,
        0
      ],
      "name": "BNaranja",
      "pbrMetallicRoughness": {
        "baseColorFactor": [
          0.80784299999999998,
          0.28235300000000002,
          0.21176500000000001,
          1
        ],
        "metallicFactor": 0.72732469509999997,
        "roughnessFactor": 0.94683689019999995
      }
    }
  ],
  "meshes": [
    {
      "primitives": [
        {
          "attributes": {
            "COLOR_0": 3,
            "NORMAL": 1,
            "POSITION": 0,
            "TANGENT": 2,
            "TEXCOORD_0": 4
          },
          "indices": 5,
          "material": 1,
          "mode": 4
        }
      ]
    },
    {
      "primitives": [
        {
          "attributes": {
            "COLOR_0": 9,
            "NORMAL": 7,
            "POSITION": 6,
            "TANGENT": 8,
            "TEXCOORD_0": 10
          },
          "indices": 11,
          "material": 4,
          "mode": 4
        }
      ]
    },
    {
      "primitives": [
        {
          "attributes": {
            "COLOR_0": 15,
            "NORMAL": 13,
            "POSITION": 12,
            "TANGENT": 14,
            "TEXCOORD_0": 16
          },
          "indices": 17,
          "material": 0,
          "mode": 4
        }
      ]
    },
    {
      "primitives": [
        {
          "attributes": {
            "COLOR_0": 21,
            "NORMAL": 19,
            "POSITION": 18,
            "TANGENT": 20,
            "TEXCOORD_0": 22
          },
          "indices": 23,
          "material": 1,
          "mode": 4
        }
      ]
    },
    {
      "primitives": [
        {
          "attributes": {
            "COLOR_0": 27,
            "NORMAL": 25,
            "POSITION": 24,
            "TANGENT": 26,
            "TEXCOORD_0": 28
          },
          "indices": 29,
          "material": 2,
          "mode": 4
        }
      ]
    },
    {
      "primitives": [
        {
          "attributes": {
            "COLOR_0": 33,
            "NORMAL": 31,
            "POSITION": 30,
            "TANGENT": 32,
            "TEXCOORD_0": 34
          },
          "indices": 35,
          "material": 3,
          "mode": 4
        }
      ]
    },
    {
      "primitives": [
        {
          "attributes": {
            "COLOR_0": 39,
            "NORMAL": 37,
            "POSITION": 36,
            "TANGENT": 38,
            "TEXCOORD_0": 40
          },
          "indices": 41,
          "material": 4,
          "mode": 4
        }
      ]
    }
  ],
  "nodes": [
    {
      "children": [
        1
      ],
      "name": "RootNode (gltf orientation matrix)",
      "rotation": [
        -0.70710678118654746,
        -0,
        -0,
        0.70710678118654757
      ]
    },
    {
      "children": [
        2
      ],
      "name": "RootNode (model correction matrix)"
    },
    {
      "children": [
        3
      ],
      "matrix": [
        -22.5,
        0,
        0,
        -0,
        0,
        22.500005722045898,
        1.9670130768645322e-06,
        0,
        0,
        -1.9670123947435059e-06,
        22.499998092651367,
        0,
        -852.76678466796875,
        -691.730712890625,
        -1056.1214599609375,
        1
      ],
      "name": "BCasco"
    },
    {
      "children": [
        4,
        5,
        6,
        7,
        8,
        9,
        10
      ],
      "matrix": [
        -0.044444444444444446,
        -0,
        -0,
        0,
        0,
        0.044444433141640267,
        -3.8854572708604188e-09,
        0,
        0,
        3.8854559234610891e-09,
        0.044444448212046662,
        0,
        -37.900745985243056,
        30.743583524599927,
        46.938732845174869,
        1
      ],
      "name": "3DSMeshMatrix"
    },
    {
      "mesh": 0,
      "name": ""
    },
    {
      "mesh": 1,
      "name": ""
    },
    {
      "mesh": 2,
      "name": ""
    },
    {
      "mesh": 3,
      "name": ""
    },
    {
      "mesh": 4,
      "name": ""
    },
    {
      "mesh": 5,
      "name": ""
    },
    {
      "mesh": 6,
      "name": ""
    }
  ],
  "samplers": [
    {
      "magFilter": 9729,
      "minFilter": 9987,
      "wrapS": 10497,
      "wrapT": 10497
    }
  ],
  "scene": 0,
  "scenes": [
    {
      "name": "OSG_Scene",
      "nodes": [
        0
      ]
    }
  ],
  "textures": [
    {
      "sampler": 0,
      "source": 0
    }
  ]
}

